<svg width="17" height="17" viewBox="0 0 17 17" fill="none" xmlns="http://www.w3.org/2000/svg">
<path id="Path 6864" d="M16.6349 1.14297C16.5155 1.03558 16.3738 0.950384 16.2177 0.892253C16.0617 0.834121 15.8944 0.804199 15.7254 0.804199C15.5564 0.804199 15.3891 0.834121 15.2331 0.892253C15.077 0.950384 14.9353 1.03558 14.8159 1.14297L8.51264 6.79465L2.20936 1.13578C1.96662 0.930719 1.64471 0.818226 1.31143 0.821991C0.978144 0.825757 0.659491 0.945488 0.422576 1.15597C0.18566 1.36645 0.0489704 1.65126 0.0412922 1.95042C0.0336139 2.24957 0.155546 2.53973 0.381411 2.75979L6.68469 8.41866L0.381411 14.0775C0.138612 14.2937 0.00141819 14.5876 1.09331e-05 14.8946C-0.00139632 15.2017 0.133098 15.4966 0.373908 15.7146C0.614717 15.9325 0.942115 16.0557 1.28408 16.057C1.62604 16.0582 1.95456 15.9375 2.19736 15.7213L8.50064 10.0624L14.8039 15.7213C15.0473 15.9282 15.371 16.0416 15.7061 16.0375C16.0412 16.0334 16.3614 15.9121 16.5984 15.6993C16.8353 15.4865 16.9705 15.1991 16.9751 14.8983C16.9797 14.5974 16.8533 14.3068 16.6229 14.0883L10.3196 8.42944L16.6229 2.77057C16.8623 2.55492 16.9977 2.26344 17 1.95897C17.0022 1.65451 16.8711 1.36144 16.6349 1.14297Z" fill="white"/>
</svg>
