<svg width="17" height="16" viewBox="0 0 17 16" fill="none" xmlns="http://www.w3.org/2000/svg">
<path id="Path 4522" d="M12.0693 10.302H11.3188L11.0534 10.05C12.096 8.85564 12.6274 7.3105 12.5361 5.73902C12.4449 4.16754 11.738 2.69194 10.564 1.62204C9.39 0.552147 7.84013 -0.0288267 6.23981 0.00110144C4.63949 0.0310296 3.1132 0.669532 1.9814 1.78255C0.849594 2.89557 0.200316 4.39652 0.169882 5.97028C0.139449 7.54404 0.730228 9.06819 1.81818 10.2227C2.90613 11.3773 4.40663 12.0724 6.00464 12.1621C7.60265 12.2518 9.17386 11.7292 10.3884 10.704L10.6446 10.965V11.703L14.6796 15.671C14.7715 15.7667 14.8819 15.8434 15.0044 15.8964C15.127 15.9494 15.259 15.9777 15.3929 15.9796C15.5267 15.9815 15.6596 15.957 15.7836 15.9075C15.9076 15.858 16.0203 15.7846 16.1149 15.6915C16.2096 15.5984 16.2843 15.4876 16.3346 15.3657C16.3849 15.2437 16.4098 15.113 16.4079 14.9814C16.4059 14.8498 16.3772 14.7199 16.3233 14.5994C16.2694 14.479 16.1914 14.3703 16.0941 14.28L12.0693 10.302ZM6.37478 10.302C5.53008 10.302 4.70434 10.0557 4.002 9.59418C3.29966 9.13268 2.75225 8.47673 2.42899 7.70928C2.10574 6.94183 2.02116 6.09735 2.18596 5.28263C2.35075 4.46791 2.75751 3.71954 3.35481 3.13216C3.9521 2.54478 4.7131 2.14477 5.54157 1.98271C6.37004 1.82066 7.22877 1.90383 8.00917 2.22172C8.78958 2.53961 9.4566 3.07793 9.92589 3.76862C10.3952 4.4593 10.6457 5.27133 10.6457 6.10201C10.6457 6.65373 10.5351 7.20005 10.3204 7.70974C10.1056 8.21944 9.79083 8.68254 9.39403 9.07257C8.99723 9.4626 8.52617 9.77193 8.00777 9.98288C7.48936 10.1938 6.93378 10.3023 6.37274 10.302H6.37478Z" fill="#EAEAEA"/>
</svg>
