<svg width="30" height="22" viewBox="0 0 30 22" fill="none" xmlns="http://www.w3.org/2000/svg">
<path id="Vector" d="M2.25 22C1.65 22 1.125 21.788 0.675 21.3641C0.225 20.9401 0 20.4646 0 19.9375V2.0625C0 1.53542 0.225 1.0599 0.675 0.635938C1.125 0.211979 1.65 0 2.25 0H11.8125C12.1125 0 12.4062 0.0572917 12.6937 0.171875C12.9812 0.286458 13.225 0.435416 13.425 0.61875L15 2.0625H27.75C28.325 2.0625 28.8438 2.27448 29.3063 2.69844C29.7688 3.1224 30 3.59792 30 4.125V19.9375C30 20.4646 29.7688 20.9401 29.3063 21.3641C28.8438 21.788 28.325 22 27.75 22H2.25Z" fill="white"/>
</svg>
